<?xml version="1.0" encoding="utf-8"?>
<!-- Generator: Adobe Illustrator 27.5.0, SVG Export Plug-In . SVG Version: 6.00 Build 0)  -->
<svg version="1.1" xmlns="http://www.w3.org/2000/svg" xmlns:xlink="http://www.w3.org/1999/xlink" x="0px" y="0px"
	 viewBox="0 0 750 500" style="enable-background:new 0 0 750 500;" xml:space="preserve">
<g id="BACKGROUND">
	<g>
		<g>
			<g style="opacity:0.68;">
				<path style="opacity:0.47;fill:#9FBFFF;" d="M643.657,224.716c-2.719-27.027-15.799-54.099-38.454-73.447
					c-35.301-30.147-88.7-37.745-135.5-30.776c-19.603,2.919-39.042,8.09-59.114,6.463c-29.274-2.373-55.061-18.646-81.714-30.574
					c-36.281-16.237-77.871-24.976-116.442-17.91c-43.733,8.011-79.59,38.27-83.868,78.419
					c-1.939,18.192,17.761,50.241,11.544,67.482c-6.306,17.486-52.345,71.048-51.21,111.788
					c1.131,40.588,11.734,53.212,26.718,73.84h11.977h451.351h25.977c9.33-20.901,16.64-37.619,5.716-65.066
					c-8.728-21.93,14.985-39.991,24.16-60.405C642.96,266.361,645.648,244.512,643.657,224.716z"/>
			</g>
			<path style="opacity:0.41;fill:#9FBFFF;" d="M36.889,228.794c-9.328-18.269-2.079-40.64,16.19-49.968
				c18.269-9.328,53.333-8.56,62.661,9.709s-18.792,33.867-30.282,50.859C69.433,263.092,46.216,247.062,36.889,228.794z"/>
			<path style="opacity:0.41;fill:#9FBFFF;" d="M678.316,299.505c8.935,9.684,9.662,23.547,1.624,30.963
				c-8.038,7.417-27.383,10.732-36.318,1.048c-8.935-9.684,3.177-21.825,5.899-32.997
				C653.317,282.937,669.381,289.821,678.316,299.505z"/>
			<path style="opacity:0.41;fill:#9FBFFF;" d="M603.091,81.593c10.366-5.472,23.205-1.504,28.677,8.862
				c5.472,10.366,5.306,30.407-5.06,35.879c-10.366,5.472-19.497-10.474-29.296-16.907
				C583.746,100.455,592.725,87.064,603.091,81.593z"/>
		</g>
		<g style="opacity:0.43;">
			<path style="fill:#9FBFFF;" d="M589.678,386.088c4.768-23.705-2.875-43.925-4.782-67.169
				c-1.805-22.006,6.011-40.513,10.347-61.472c3.859-18.653,2.573-39.781-2.271-58.114c-6.614-25.03-21.846-48.206-43.791-62.335
				c-34.195-22.016-79.798-19.423-117.57-4.28c-15.821,6.343-31.144,14.783-48.088,16.918c-24.712,3.113-48.764-7.538-72.837-13.928
				c-32.769-8.699-68.741-9.344-99.659,4.385c-35.055,15.566-59.981,50.706-57.069,89.409c1.32,17.537,8.07,34.843,5.68,52.265
				c-2.424,17.669-12.92,32.451-18.477,49.092c-7.584,22.714-8.275,56.095,3.919,79.142h436.388
				C585.233,402.464,588.007,394.394,589.678,386.088z"/>
		</g>
		<g>
			<g>
				<g style="opacity:0.47;">
					<path style="fill:#9FBFFF;" d="M508.532,311.821c-1.393-14.321-8.094-28.666-19.701-38.918
						c-18.085-15.974-45.443-20.001-69.419-16.308c-10.043,1.547-20.002,4.287-30.285,3.424
						c-14.998-1.258-28.209-9.88-41.864-16.201c-18.588-8.604-39.895-13.234-59.656-9.49c-22.405,4.245-40.775,20.279-42.967,41.553
						c-0.993,9.64,9.099,26.622,5.914,35.758c-3.231,9.266-26.818,37.647-26.236,59.235c0.579,21.507,6.012,28.196,13.688,39.127
						h6.136h231.236h13.308c4.78-11.075,8.525-19.934,2.928-34.478c-4.472-11.62,7.677-21.191,12.377-32.008
						C508.175,333.888,509.552,322.31,508.532,311.821z"/>
				</g>
			</g>
		</g>
	</g>
	<path style="fill:#9FBFFF;" d="M712.302,413.133H62.169c-0.873,0-1.581-0.708-1.581-1.581l0,0c0-0.873,0.708-1.581,1.581-1.581
		h650.133c0.873,0,1.581,0.708,1.581,1.581l0,0C713.882,412.425,713.175,413.133,712.302,413.133z"/>
	<circle style="fill:#17014C;" cx="687.5" cy="263.5" r="4.5"/>
	<circle style="fill:#4E69FF;" cx="655.5" cy="388.5" r="3.5"/>
	<circle style="fill:#4E69FF;" cx="112.5" cy="107.5" r="4.5"/>
	<path style="fill:#17014C;" d="M70.147,375.427c0,2.64-2.14,4.779-4.78,4.779c-2.64,0-4.779-2.14-4.779-4.779
		c0-2.64,2.14-4.779,4.779-4.779C68.007,370.647,70.147,372.787,70.147,375.427z"/>
	<circle style="fill:#17014C;" cx="83.5" cy="129.5" r="1.5"/>
	<path style="fill:#4E69FF;" d="M467.007,71.442c-1.386,6.489-7.77,10.626-14.259,9.24c-6.489-1.386-10.626-7.77-9.24-14.259
		c1.386-6.489,7.77-10.626,14.258-9.24C464.256,58.57,468.393,64.954,467.007,71.442z"/>
	<path style="fill:#FFB54A;" d="M656.506,89.444c-0.421,1.971-2.359,3.227-4.33,2.806s-3.227-2.359-2.806-4.33
		c0.421-1.971,2.359-3.227,4.33-2.806C655.67,85.535,656.926,87.474,656.506,89.444z"/>
	<path style="fill:#FFB54A;" d="M186.641,66.229c-0.421,1.971-2.359,3.227-4.33,2.806c-1.971-0.421-3.227-2.36-2.806-4.33
		c0.421-1.971,2.359-3.227,4.33-2.806C185.806,62.32,187.062,64.258,186.641,66.229z"/>
	<path style="fill:#4E69FF;" d="M686.568,171.583c-0.421,1.971-2.359,3.227-4.33,2.806c-1.971-0.421-3.227-2.359-2.806-4.33
		c0.421-1.971,2.359-3.227,4.33-2.806C685.733,167.674,686.989,169.612,686.568,171.583z"/>
	<path style="fill:#17014C;" d="M423.915,82.877c-0.33,1.545-1.85,2.531-3.395,2.201c-1.545-0.33-2.531-1.85-2.201-3.396
		c0.33-1.545,1.85-2.53,3.396-2.2C423.259,79.812,424.245,81.332,423.915,82.877z"/>
</g>
<g id="OBJECTS">
	<g>
		<g>
			<circle style="fill:#1B1B25;" cx="378.031" cy="141.531" r="57.469"/>
			<circle style="fill:#FFB54A;" cx="371.969" cy="135.469" r="57.469"/>
			<path style="fill:#FCF0E3;" d="M371.969,181.867c-25.522,0-46.286-20.764-46.286-46.286c0-25.522,20.764-46.286,46.286-46.286
				c25.522,0,46.286,20.764,46.286,46.286C418.255,161.104,397.491,181.867,371.969,181.867z M371.969,92.296
				c-23.868,0-43.286,19.418-43.286,43.286c0,23.868,19.418,43.286,43.286,43.286c23.868,0,43.286-19.418,43.286-43.286
				C415.255,111.714,395.837,92.296,371.969,92.296z"/>
			<g>
				<g>
					<path style="fill:#1B1B25;" d="M368.587,156.331c-2.888-0.355-5.674-1.076-8.36-2.165c-2.688-1.088-5.141-2.475-7.361-4.164
						l5.196-7.594c1.82,1.377,3.586,2.521,5.296,3.431c1.709,0.911,3.564,1.565,5.563,1.965v-10.591
						c-2.398-0.667-4.497-1.399-6.295-2.198c-1.799-0.8-3.287-1.754-4.464-2.865c-1.177-1.109-2.064-2.408-2.664-3.897
						c-0.6-1.487-0.899-3.207-0.899-5.163v-0.133c0-1.865,0.333-3.552,0.999-5.063c0.666-1.509,1.609-2.82,2.831-3.93
						c1.221-1.109,2.698-2.009,4.43-2.698c1.732-0.688,3.642-1.143,5.729-1.366v-3.864h6.928v3.997
						c2.397,0.356,4.607,0.944,6.628,1.765c2.021,0.822,3.94,1.877,5.762,3.164l-4.463,7.794c-1.332-0.888-2.687-1.676-4.063-2.365
						c-1.377-0.688-2.775-1.21-4.196-1.565v10.059c5.063,1.378,8.736,3.176,11.025,5.396c2.287,2.221,3.431,5.196,3.431,8.926v0.133
						c0,1.865-0.345,3.553-1.032,5.063c-0.689,1.51-1.644,2.821-2.865,3.93c-1.222,1.111-2.697,2.021-4.43,2.731
						c-1.732,0.711-3.663,1.177-5.795,1.399v6.595h-6.928V156.331z M368.92,118.228c-1.599,0.223-2.765,0.7-3.498,1.432
						c-0.732,0.733-1.099,1.632-1.099,2.698v0.133c0,1.022,0.311,1.899,0.933,2.631c0.621,0.733,1.842,1.432,3.664,2.099V118.228z
						 M375.182,148.137c3.152-0.488,4.73-1.909,4.73-4.263v-0.133c0-1.154-0.333-2.098-0.999-2.831
						c-0.667-0.733-1.91-1.432-3.73-2.098V148.137z"/>
				</g>
			</g>
		</g>
		<g>
			<circle style="fill:#1B1B25;" cx="378.031" cy="141.531" r="57.469"/>
			<circle style="fill:#FFB54A;" cx="371.969" cy="135.469" r="57.469"/>
			<path style="fill:#FCF0E3;" d="M371.969,181.867c-25.522,0-46.286-20.764-46.286-46.286c0-25.522,20.764-46.286,46.286-46.286
				c25.522,0,46.286,20.764,46.286,46.286C418.255,161.104,397.491,181.867,371.969,181.867z M371.969,92.296
				c-23.868,0-43.286,19.418-43.286,43.286c0,23.868,19.418,43.286,43.286,43.286c23.868,0,43.286-19.418,43.286-43.286
				C415.255,111.714,395.837,92.296,371.969,92.296z"/>
			<g>
				<g>
					<path style="fill:#1B1B25;" d="M368.587,156.331c-2.888-0.355-5.674-1.076-8.36-2.165c-2.688-1.088-5.141-2.475-7.361-4.164
						l5.196-7.594c1.82,1.377,3.586,2.521,5.296,3.431c1.709,0.911,3.564,1.565,5.563,1.965v-10.591
						c-2.398-0.667-4.497-1.399-6.295-2.198c-1.799-0.8-3.287-1.754-4.464-2.865c-1.177-1.109-2.064-2.408-2.664-3.897
						c-0.6-1.487-0.899-3.207-0.899-5.163v-0.133c0-1.865,0.333-3.552,0.999-5.063c0.666-1.509,1.609-2.82,2.831-3.93
						c1.221-1.109,2.698-2.009,4.43-2.698c1.732-0.688,3.642-1.143,5.729-1.366v-3.864h6.928v3.997
						c2.397,0.356,4.607,0.944,6.628,1.765c2.021,0.822,3.94,1.877,5.762,3.164l-4.463,7.794c-1.332-0.888-2.687-1.676-4.063-2.365
						c-1.377-0.688-2.775-1.21-4.196-1.565v10.059c5.063,1.378,8.736,3.176,11.025,5.396c2.287,2.221,3.431,5.196,3.431,8.926v0.133
						c0,1.865-0.345,3.553-1.032,5.063c-0.689,1.51-1.644,2.821-2.865,3.93c-1.222,1.111-2.697,2.021-4.43,2.731
						c-1.732,0.711-3.663,1.177-5.795,1.399v6.595h-6.928V156.331z M368.92,118.228c-1.599,0.223-2.765,0.7-3.498,1.432
						c-0.732,0.733-1.099,1.632-1.099,2.698v0.133c0,1.022,0.311,1.899,0.933,2.631c0.621,0.733,1.842,1.432,3.664,2.099V118.228z
						 M375.182,148.137c3.152-0.488,4.73-1.909,4.73-4.263v-0.133c0-1.154-0.333-2.098-0.999-2.831
						c-0.667-0.733-1.91-1.432-3.73-2.098V148.137z"/>
				</g>
			</g>
		</g>
		<g>
			<circle style="fill:#1B1B25;" cx="314.707" cy="108.871" r="26.003"/>
			<circle style="fill:#FFB54A;" cx="311.965" cy="106.129" r="26.003"/>
			<path style="fill:#FCF0E3;" d="M311.965,127.123c-11.548,0-20.943-9.395-20.943-20.943c0-11.548,9.395-20.943,20.943-20.943
				c11.548,0,20.943,9.395,20.943,20.943C332.908,117.728,323.513,127.123,311.965,127.123z M311.965,86.594
				c-10.799,0-19.586,8.786-19.586,19.586c0,10.799,8.786,19.586,19.586,19.586c10.8,0,19.586-8.786,19.586-19.586
				C331.55,95.38,322.764,86.594,311.965,86.594z"/>
			<g>
				<g>
					<path style="fill:#1B1B25;" d="M310.435,115.568c-1.306-0.161-2.567-0.487-3.783-0.979c-1.216-0.492-2.326-1.12-3.33-1.884
						l2.351-3.437c0.824,0.623,1.622,1.141,2.396,1.552c0.773,0.412,1.613,0.708,2.517,0.889v-4.792
						c-1.085-0.302-2.035-0.633-2.849-0.995c-0.814-0.361-1.487-0.793-2.019-1.296c-0.533-0.502-0.935-1.09-1.206-1.763
						c-0.271-0.673-0.407-1.452-0.407-2.336v-0.061c0-0.844,0.151-1.607,0.452-2.29c0.301-0.683,0.728-1.276,1.281-1.778
						c0.553-0.502,1.221-0.909,2.004-1.221c0.784-0.311,1.647-0.517,2.592-0.618v-1.748h3.135v1.809
						c1.085,0.161,2.085,0.427,2.999,0.799c0.914,0.372,1.783,0.849,2.608,1.432l-2.02,3.526c-0.603-0.401-1.216-0.758-1.839-1.07
						c-0.623-0.312-1.256-0.547-1.899-0.708v4.551c2.291,0.623,3.954,1.437,4.989,2.441c1.035,1.005,1.552,2.351,1.552,4.039v0.061
						c0,0.844-0.156,1.607-0.467,2.29c-0.312,0.684-0.744,1.276-1.296,1.778c-0.553,0.502-1.221,0.914-2.004,1.236
						c-0.783,0.322-1.658,0.533-2.622,0.633v2.984h-3.135V115.568z M310.586,98.328c-0.724,0.101-1.251,0.316-1.583,0.648
						c-0.331,0.331-0.497,0.738-0.497,1.221v0.06c0,0.463,0.14,0.859,0.422,1.191c0.281,0.331,0.833,0.648,1.658,0.949V98.328z
						 M313.419,111.861c1.427-0.221,2.14-0.864,2.14-1.929v-0.06c0-0.522-0.15-0.949-0.452-1.281
						c-0.301-0.332-0.864-0.648-1.688-0.949V111.861z"/>
				</g>
			</g>
		</g>
		<path style="fill:#FFFFFF;" d="M282.596,152.823L282.596,152.823c0-6.237-5.056-11.292-11.292-11.292l0,0
			c6.237,0,11.292-5.056,11.292-11.292l0,0c0,6.236,5.056,11.292,11.292,11.292l0,0
			C287.652,141.531,282.596,146.586,282.596,152.823z"/>
		<path style="fill:#FFFFFF;" d="M415.255,209.596L415.255,209.596c0-4.58-3.713-8.293-8.293-8.293v0
			c4.58,0,8.293-3.713,8.293-8.293l0,0c0,4.58,3.713,8.293,8.293,8.293v0C418.968,201.303,415.255,205.016,415.255,209.596z"/>
		<path style="fill:#FFFFFF;" d="M361.049,249.535L361.049,249.535c0-8.422-6.827-15.25-15.25-15.25l0,0
			c8.422,0,15.25-6.827,15.25-15.25l0,0c0,8.422,6.828,15.25,15.25,15.25l0,0C367.876,234.286,361.049,241.113,361.049,249.535z"/>
		<path style="fill:#FCF0E3;" d="M413.696,131.877L413.696,131.877c0-7.892-6.398-14.29-14.29-14.29l0,0
			c7.892,0,14.29-6.398,14.29-14.291l0,0c0,7.892,6.398,14.291,14.29,14.291l0,0C420.094,117.586,413.696,123.984,413.696,131.877z"
			/>
		<path style="fill:#FFFFFF;" d="M461.466,141.531L461.466,141.531c0-4.354-3.529-7.883-7.883-7.883l0,0
			c4.353,0,7.883-3.529,7.883-7.883l0,0c0,4.354,3.529,7.883,7.883,7.883l0,0C464.996,133.648,461.466,137.177,461.466,141.531z"/>
	</g>
	<g>
		<path style="fill:#4E69FF;" d="M219.917,115.229h-87.8c-9.03,0-16.351,7.32-16.351,16.351c0,9.03,7.32,16.35,16.351,16.35h72.358
			l9.955,9.071v-9.071h5.488c9.03,0,16.351-7.32,16.351-16.35C236.267,122.549,228.947,115.229,219.917,115.229z"/>
		<path style="fill:#FFB54A;" d="M140.034,129.326c1.145-0.951,1.874-2.384,1.874-3.989c0-2.863-2.321-5.183-5.183-5.183
			c-2.863,0-5.183,2.321-5.183,5.183c0,1.604,0.729,3.038,1.874,3.989c-3.676,1.35-6.304,4.871-6.304,9.016
			c0,5.309,19.225,5.309,19.225,0C146.338,134.197,143.71,130.676,140.034,129.326z"/>
		<g>
			<path style="fill:#FFFFFF;" d="M221.016,124.019h-62.914c-0.276,0-0.5-0.224-0.5-0.5c0-0.276,0.224-0.5,0.5-0.5h62.914
				c0.276,0,0.5,0.224,0.5,0.5C221.516,123.795,221.292,124.019,221.016,124.019z"/>
			<path style="fill:#FFFFFF;" d="M211.256,138.781h-53.153c-0.276,0-0.5-0.224-0.5-0.5c0-0.276,0.224-0.5,0.5-0.5h53.153
				c0.276,0,0.5,0.224,0.5,0.5C211.756,138.558,211.532,138.781,211.256,138.781z"/>
			<path style="fill:#FFFFFF;" d="M196.781,131.867h-38.678c-0.276,0-0.5-0.224-0.5-0.5s0.224-0.5,0.5-0.5h38.678
				c0.276,0,0.5,0.224,0.5,0.5S197.057,131.867,196.781,131.867z"/>
			<path style="fill:#FFFFFF;" d="M221.016,131.867h-19.412c-0.276,0-0.5-0.224-0.5-0.5s0.224-0.5,0.5-0.5h19.412
				c0.276,0,0.5,0.224,0.5,0.5S221.292,131.867,221.016,131.867z"/>
		</g>
		<path style="fill:#FFFFFF;" d="M142.944,136.85c-0.384,0-0.767-0.146-1.06-0.439l-3.768-3.768c-0.586-0.586-0.586-1.536,0-2.121
			c0.586-0.586,1.535-0.586,2.121,0l2.707,2.708l7.275-7.274c0.586-0.586,1.535-0.586,2.121,0c0.586,0.585,0.586,1.536,0,2.121
			l-8.335,8.335C143.712,136.703,143.328,136.85,142.944,136.85z"/>
		<g>
			<path style="fill:#FFB54A;" d="M611.508,200.38h90.081c9.265,0,16.775,7.511,16.775,16.775c0,9.265-7.511,16.775-16.775,16.775
				h-74.237l-10.213,9.307v-9.307h-5.63c-9.265,0-16.775-7.51-16.775-16.775C594.732,207.891,602.243,200.38,611.508,200.38z"/>
			<g>
				<g>
					<g>
						<path style="fill:#4E69FF;" d="M699.573,214.689c1.145-0.951,1.874-2.384,1.874-3.989c0-2.863-2.321-5.183-5.183-5.183
							c-2.863,0-5.183,2.321-5.183,5.183c0,1.604,0.729,3.038,1.874,3.989c-3.676,1.35-6.304,4.871-6.304,9.016
							c0,5.309,19.225,5.309,19.225,0C705.876,219.561,703.249,216.04,699.573,214.689z"/>
						<g>
							<path style="fill:#FFFFFF;" d="M707.467,217.574h-2.483v-2.483c0-0.269-0.218-0.487-0.487-0.487h-2.266
								c-0.269,0-0.487,0.218-0.487,0.487v2.483h-2.483c-0.269,0-0.487,0.218-0.487,0.487v2.266c0,0.269,0.218,0.487,0.487,0.487
								h2.483v2.483c0,0.269,0.218,0.487,0.487,0.487h2.266c0.269,0,0.487-0.218,0.487-0.487v-2.483h2.483
								c0.269,0,0.487-0.218,0.487-0.487v-2.266C707.954,217.792,707.736,217.574,707.467,217.574z"/>
						</g>
					</g>
				</g>
			</g>
			<g>
				<path style="fill:#FFFFFF;" d="M678.783,210.383H615.87c-0.276,0-0.5-0.224-0.5-0.5s0.224-0.5,0.5-0.5h62.913
					c0.276,0,0.5,0.224,0.5,0.5S679.06,210.383,678.783,210.383z"/>
				<path style="fill:#FFFFFF;" d="M669.022,225.145H615.87c-0.276,0-0.5-0.224-0.5-0.5c0-0.276,0.224-0.5,0.5-0.5h53.152
					c0.276,0,0.5,0.224,0.5,0.5C669.522,224.921,669.299,225.145,669.022,225.145z"/>
				<path style="fill:#FFFFFF;" d="M654.548,218.231H615.87c-0.276,0-0.5-0.224-0.5-0.5c0-0.276,0.224-0.5,0.5-0.5h38.678
					c0.276,0,0.5,0.224,0.5,0.5C655.048,218.007,654.824,218.231,654.548,218.231z"/>
				<path style="fill:#FFFFFF;" d="M678.783,218.231h-19.412c-0.276,0-0.5-0.224-0.5-0.5c0-0.276,0.224-0.5,0.5-0.5h19.412
					c0.276,0,0.5,0.224,0.5,0.5C679.283,218.007,679.06,218.231,678.783,218.231z"/>
			</g>
		</g>
		<g>
			<path style="fill:#4E69FF;" d="M498.277,103.673h62.055c6.382,0,11.556,5.174,11.556,11.556c0,6.382-5.174,11.556-11.556,11.556
				h-58.176h-3.878c-6.382,0-11.556-5.174-11.556-11.556C486.721,108.847,491.895,103.673,498.277,103.673z"/>
			<g>
				<path style="fill:#FFFFFF;" d="M553.326,111.428h-48.112c-0.276,0-0.5-0.224-0.5-0.5c0-0.276,0.224-0.5,0.5-0.5h48.112
					c0.276,0,0.5,0.224,0.5,0.5C553.826,111.204,553.602,111.428,553.326,111.428z"/>
				<path style="fill:#FFFFFF;" d="M545.862,120.17h-40.648c-0.276,0-0.5-0.224-0.5-0.5c0-0.276,0.224-0.5,0.5-0.5h40.648
					c0.276,0,0.5,0.224,0.5,0.5C546.362,119.946,546.139,120.17,545.862,120.17z"/>
				<path style="fill:#FFFFFF;" d="M534.793,116.075h-29.579c-0.276,0-0.5-0.224-0.5-0.5c0-0.276,0.224-0.5,0.5-0.5h29.579
					c0.276,0,0.5,0.224,0.5,0.5C535.293,115.852,535.069,116.075,534.793,116.075z"/>
				<path style="fill:#FFFFFF;" d="M553.326,116.075h-14.845c-0.276,0-0.5-0.224-0.5-0.5c0-0.276,0.224-0.5,0.5-0.5h14.845
					c0.276,0,0.5,0.224,0.5,0.5C553.826,115.852,553.602,116.075,553.326,116.075z"/>
			</g>
		</g>
		<g>
			<path style="fill:#FFB54A;" d="M77.698,267.504h55.177c5.675,0,10.275,4.6,10.275,10.275c0,5.675-4.6,10.275-10.275,10.275
				H81.147h-3.449c-5.675,0-10.275-4.6-10.275-10.275C67.423,272.104,72.023,267.504,77.698,267.504z"/>
			<g>
				<path style="fill:#FFFFFF;" d="M126.647,274.455h-42.78c-0.276,0-0.5-0.224-0.5-0.5c0-0.276,0.224-0.5,0.5-0.5h42.78
					c0.276,0,0.5,0.224,0.5,0.5C127.147,274.231,126.923,274.455,126.647,274.455z"/>
				<path style="fill:#FFFFFF;" d="M120.01,282.228H83.867c-0.276,0-0.5-0.224-0.5-0.5c0-0.276,0.224-0.5,0.5-0.5h36.143
					c0.276,0,0.5,0.224,0.5,0.5C120.51,282.005,120.286,282.228,120.01,282.228z"/>
				<path style="fill:#FFFFFF;" d="M110.167,278.587h-26.3c-0.276,0-0.5-0.224-0.5-0.5c0-0.276,0.224-0.5,0.5-0.5h26.3
					c0.276,0,0.5,0.224,0.5,0.5C110.667,278.363,110.443,278.587,110.167,278.587z"/>
				<path style="fill:#FFFFFF;" d="M126.647,278.587h-13.2c-0.276,0-0.5-0.224-0.5-0.5c0-0.276,0.224-0.5,0.5-0.5h13.2
					c0.276,0,0.5,0.224,0.5,0.5C127.147,278.363,126.923,278.587,126.647,278.587z"/>
			</g>
		</g>
	</g>
	<g>
		<g>
			<path style="fill:#FFFFFF;" d="M485.516,323.066H387.48c-0.276,0-0.5-0.224-0.5-0.5s0.224-0.5,0.5-0.5h98.035
				c0.276,0,0.5,0.224,0.5,0.5S485.792,323.066,485.516,323.066z"/>
			<path style="fill:#FFFFFF;" d="M485.516,346.07h-82.826c-0.276,0-0.5-0.224-0.5-0.5s0.224-0.5,0.5-0.5h82.826
				c0.276,0,0.5,0.224,0.5,0.5S485.792,346.07,485.516,346.07z"/>
			<path style="fill:#FFFFFF;" d="M485.516,335.296h-60.271c-0.276,0-0.5-0.224-0.5-0.5s0.224-0.5,0.5-0.5h60.271
				c0.276,0,0.5,0.224,0.5,0.5S485.792,335.296,485.516,335.296z"/>
			<path style="fill:#FFFFFF;" d="M417.728,335.296H387.48c-0.276,0-0.5-0.224-0.5-0.5s0.224-0.5,0.5-0.5h30.248
				c0.276,0,0.5,0.224,0.5,0.5S418.005,335.296,417.728,335.296z"/>
		</g>
		<g>
			<path style="fill:#FFFFFF;" d="M374.638,359.556h-98.035c-0.276,0-0.5-0.224-0.5-0.5c0-0.276,0.224-0.5,0.5-0.5h98.035
				c0.276,0,0.5,0.224,0.5,0.5C375.138,359.332,374.914,359.556,374.638,359.556z"/>
			<path style="fill:#FFFFFF;" d="M359.428,382.559h-82.826c-0.276,0-0.5-0.224-0.5-0.5s0.224-0.5,0.5-0.5h82.826
				c0.276,0,0.5,0.224,0.5,0.5S359.705,382.559,359.428,382.559z"/>
			<path style="fill:#FFFFFF;" d="M336.873,371.785h-60.27c-0.276,0-0.5-0.224-0.5-0.5c0-0.276,0.224-0.5,0.5-0.5h60.27
				c0.276,0,0.5,0.224,0.5,0.5C337.373,371.561,337.149,371.785,336.873,371.785z"/>
			<path style="fill:#FFFFFF;" d="M374.638,371.785h-30.249c-0.276,0-0.5-0.224-0.5-0.5c0-0.276,0.224-0.5,0.5-0.5h30.249
				c0.276,0,0.5,0.224,0.5,0.5C375.138,371.561,374.914,371.785,374.638,371.785z"/>
		</g>
	</g>
	<g>
		<g>
			<g>
				<g>
					<g>
						<path style="fill:#FEC29E;" d="M448.551,266.647l0.033-0.115l14.478-50.366l-0.062-0.047c0.651-1.274,2.339-4.008,5.792-6.417
							c5.969-4.163,6.681-11.06,6.681-11.06c3.187-3.085,6.78-5.717,10.034-8.73c0.339-0.314,0.693-0.659,0.793-1.111
							c0.111-0.504-0.124-1.019-0.412-1.447c-1.68-2.489-4.766-2.849-7.334-1.699c-1.504,0.673-2.849,1.631-4.109,2.684
							c-0.598,0.499-2.638,1.872-3.257,2.786l11.517-24.59c1.023-2.183,0.353-4.675-1.487-5.537v0
							c-0.92-0.431-1.966-0.376-2.909,0.06c-0.598,0.276-1.144,0.72-1.602,1.275c0.035-0.18,0.056-0.287,0.056-0.287
							c-13.488-11.342-30.131,27.263-30.131,27.263l-4.724,11.146l-40.061,74.277c-5.665,10.777-1.298,24.104,9.646,29.439l0,0
							c0.158,0.077,0.317,0.144,0.475,0.217c3.212,1.854,6.936,2.92,10.911,2.92h78.84l16.989-40.377L448.551,266.647z
							 M471.013,191.495L471.013,191.495C471.013,191.495,471.013,191.495,471.013,191.495L471.013,191.495z"/>
						<g>
							<path style="fill:none;" d="M446.29,274.512l-2.018,7.02C445.005,279.105,445.694,276.727,446.29,274.512z"/>
							<path style="opacity:0.17;fill:#FF887C;" d="M435.049,307.287C432.487,307.209,434.038,307.256,435.049,307.287
								L435.049,307.287z"/>
							<path style="opacity:0.17;fill:#FF887C;" d="M435.063,307.287c0.359,0.011,0.646,0.02,0.646,0.02
								C435.464,307.299,435.258,307.293,435.063,307.287z"/>
							<path style="opacity:0.17;fill:#FF887C;" d="M448.584,266.532l-2.294,7.98c-0.596,2.215-1.285,4.594-2.018,7.02l-2.772,9.644
								c-0.383,1.237-0.868,2.41-1.437,3.518c-2.386,7.139-4.355,12.613-4.355,12.613l28.353-40.598
								C457.009,266.709,455.391,266.54,448.584,266.532z"/>
							<path style="opacity:0.17;fill:#FF887C;" d="M435.049,307.287c0.004,0,0.01,0,0.014,0
								C435.058,307.287,435.054,307.287,435.049,307.287z"/>
						</g>
						<path style="fill:#FB8E77;" d="M459.999,193.637c-0.104,0-0.207-0.032-0.297-0.098c-0.222-0.164-0.27-0.477-0.105-0.699
							c5.032-6.825,11.797-3.137,11.863-3.1c0.24,0.135,0.325,0.439,0.19,0.68c-0.134,0.24-0.439,0.326-0.68,0.193
							c-0.246-0.137-6.069-3.281-10.569,2.821C460.304,193.567,460.152,193.637,459.999,193.637z"/>
						<path style="fill:#FB8E77;" d="M476.99,162.236c-2.078,2.619-4.013,5.374-5.726,8.238c-0.854,1.434-1.627,2.913-2.275,4.432
							c-0.637,1.507-1.153,3.127-1.071,4.655l0.002,0.031c0.015,0.276-0.197,0.511-0.472,0.526
							c-0.276,0.015-0.511-0.197-0.526-0.472c0-0.003,0-0.009-0.001-0.012c-0.054-1.859,0.558-3.521,1.242-5.081
							c0.703-1.561,1.523-3.053,2.419-4.491c1.799-2.874,3.794-5.597,5.95-8.205c0.105-0.127,0.293-0.145,0.42-0.04
							c0.125,0.104,0.144,0.288,0.044,0.415L476.99,162.236z"/>
						<path style="fill:#FB8E77;" d="M473.514,160.809c-1.319,0.908-2.504,2.111-3.564,3.36c-1.061,1.263-1.992,2.632-2.831,4.053
							c-0.822,1.433-1.546,2.921-2.162,4.454c-0.327,0.759-0.571,1.551-0.86,2.324l-0.717,2.374l-0.009,0.029
							c-0.08,0.264-0.359,0.414-0.623,0.334c-0.264-0.08-0.414-0.359-0.334-0.623c0.001-0.002,0.002-0.007,0.003-0.009l0.779-2.414
							c0.311-0.787,0.576-1.591,0.925-2.363c0.661-1.558,1.431-3.069,2.302-4.521c0.888-1.442,1.869-2.828,2.985-4.105
							c1.127-1.272,2.326-2.462,3.784-3.425c0.143-0.094,0.335-0.055,0.43,0.088c0.093,0.141,0.056,0.331-0.083,0.426
							L473.514,160.809z"/>
						<path style="fill:#FB8E77;" d="M468.061,161.193c-1.914,2.004-3.696,4.169-5.236,6.47c-0.76,1.156-1.49,2.336-2.064,3.581
							c-0.577,1.239-1.054,2.527-1.262,3.841l-0.002,0.012c-0.043,0.273-0.299,0.459-0.572,0.416s-0.459-0.299-0.416-0.572
							c0-0.003,0.001-0.009,0.002-0.012c0.267-1.453,0.811-2.799,1.445-4.078c0.632-1.284,1.41-2.474,2.216-3.635
							c1.635-2.312,3.478-4.442,5.48-6.437c0.114-0.114,0.298-0.113,0.412,0.001c0.112,0.112,0.113,0.293,0.005,0.407
							L468.061,161.193z"/>
					</g>
					<g>
						<path style="fill:#4E69FF;" d="M630.513,339.984l-19.34-52.717c-2.302-11.568-13.307-20.337-26.546-20.337l-54.022-0.429
							l-60.863,0.232v40.575h18.888l-9.749,105.826l134.021,0.758l-0.751-71.66L630.513,339.984z"/>
						<path style="fill:none;stroke:#FB8E77;stroke-linecap:round;stroke-miterlimit:10;" d="M497.381,337.332"/>
					</g>
					<path style="opacity:0.05;fill:#1B1B25;" d="M530.5,266.952l0.106-0.452l-60.863,0.232v40.575h18.888l0.099-1.071
						C488.73,284.822,507.346,267.421,530.5,266.952z"/>
					<path style="opacity:0.18;fill:#FF887C;" d="M453.584,208.238c0,0,3.416,29.015,3.617,28.316
						c0.201-0.699,5.861-20.388,5.861-20.388L453.584,208.238z"/>
				</g>
			</g>
		</g>
		<g>
			<g>
				<path style="fill:#1B1B25;" d="M533.361,355.13l-5.115-25.778l-3.946-19.889c-0.464-2.34-2.758-3.874-5.098-3.41l-19.756,3.92
					c-2.34,0.464-3.874,2.758-3.41,5.098l3.972,20.018l3.15,15.877l1.939,9.772c0.464,2.34,2.758,3.874,5.098,3.41l11.668-2.315
					l8.087-1.605C532.29,359.763,533.825,357.469,533.361,355.13z"/>
			</g>
			<g>
				<path style="fill:#FEC29E;" d="M638.518,378.887l-8.909-38.792l-40.505,4.956l2.224,9.867l-0.205-0.051l-44.031-10.9
					l-0.038,0.054c-1.215-0.609-3.498-2.06-5.505-5.061c-3.692-5.517-9.894-5.669-9.894-5.669c-1.195-1.252-2.308-2.589-3.409-3.939
					l1.032,5.199l-0.258,0.137c-2.799,1.483-5.957,2.141-9.116,1.894c-5.844-0.456-15.391-1.201-19.36-1.511
					c-1.212-0.095-2.375,0.549-2.897,1.647c-5.667,11.912,18.665,22.81,24.217,25.114l-0.001,0c0.073,0.03,0.129,0.053,0.196,0.081
					c0.08,0.033,0.157,0.065,0.227,0.093c0.081,0.033,0.145,0.059,0.212,0.086c0.063,0.025,0.126,0.051,0.177,0.071
					c0.071,0.028,0.119,0.047,0.166,0.065c0.021,0.009,0.047,0.019,0.064,0.025c0.053,0.021,0.083,0.032,0.083,0.032l9.523,3.57
					l75.384,37.106c0.7,0.335,1.408,0.628,2.123,0.882c3.655,1.674,7.862,2.218,12.084,1.249l0,0
					C633.871,402.389,641.221,390.657,638.518,378.887z"/>
				<path style="opacity:0.17;fill:#FF887C;" d="M635.646,366.381l-46.541-21.331c1.554,6.768,0.649,3.781,2.019,9.816l3.167,0.784
					C607.693,356.555,635.646,366.381,635.646,366.381z"/>
			</g>
			<path style="opacity:0.35;fill:#1B1B25;" d="M585.344,345.551c-0.233,0-0.441-0.164-0.488-0.398l-5.815-28.168
				c-0.057-0.271,0.118-0.535,0.388-0.591c0.265-0.062,0.535,0.116,0.591,0.388l5.723,27.715l19.585-2.492
				c0.271-0.039,0.524,0.158,0.56,0.433c0.035,0.274-0.159,0.524-0.433,0.56l-20.045,2.551
				C585.387,345.55,585.365,345.551,585.344,345.551z"/>
		</g>
		<g>
			<path style="opacity:0.17;fill:#FF887C;" d="M635.963,367.984c0.038,0.191,0.068,0.343,0.079,0.399
				C636.034,368.343,636.009,368.216,635.963,367.984z"/>
			<path style="opacity:0.17;fill:#FF887C;" d="M636.042,368.383C636.047,368.407,636.048,368.411,636.042,368.383L636.042,368.383z
				"/>
			<path style="opacity:0.17;fill:#FF887C;" d="M635.646,366.381c0,0,0.108,0.544,0.211,1.068
				C635.801,367.165,635.734,366.828,635.646,366.381z"/>
			<path style="opacity:0.17;fill:#FF887C;" d="M635.857,367.45c0.043,0.217,0.079,0.399,0.106,0.535
				C635.932,367.826,635.895,367.641,635.857,367.45z"/>
		</g>
		<g>
			<g>
				<path style="fill:#1B1B25;" d="M580.758,162.491c-1.232-8.492-8.981-14.535-17.569-13.564c-2.279,0.258-4.385,0.992-6.246,2.079
					c-2.763-4.522-7.965-7.292-13.578-6.657c-3.208,0.363-6.03,1.788-8.184,3.871c-3.099-1.553-6.662-2.266-10.363-1.847
					c-10.169,1.15-17.481,10.326-16.331,20.495c0.538,4.756,2.836,8.881,6.166,11.813l-3.766,20.118
					c-1.081,5.775,2.724,11.333,8.499,12.415l44.624,8.354c5.775,1.081,11.333-2.724,12.415-8.5l7.31-39.053
					C584.41,168.41,583.181,164.891,580.758,162.491z"/>
				<g>
					<path style="fill:#FCF0E3;" d="M515.718,173.492c-0.165,0-0.327-0.083-0.423-0.233c-7.971-12.614,3.008-20.703,3.12-20.783
						c0.225-0.162,0.535-0.109,0.697,0.115c0.16,0.224,0.109,0.536-0.114,0.697c-0.425,0.306-10.318,7.63-2.857,19.436
						c0.148,0.233,0.078,0.543-0.155,0.69C515.902,173.467,515.81,173.492,515.718,173.492z"/>
				</g>
			</g>
			<g>
				<g>
					<path style="fill:#FEC29E;" d="M573.54,201.93l-0.976-0.183l-9.851-21.173c-2.424-0.35-4.695-1.244-6.665-2.577
						c-1.89,2.046-4.489,3.456-7.474,3.793c-3.592,0.406-6.985-0.822-9.46-3.082c-2.746,2.413-6.224,4.048-10.132,4.49
						c-4.469,0.505-8.745-0.626-12.234-2.913l-6.862,36.654c-0.948,5.064,0.092,10.028,2.542,14.127
						c2.438,6.031,7.683,10.768,14.43,12.322v24.205c0,8.408,6.88,15.288,15.288,15.288h4.822c8.408,0,15.288-6.879,15.288-15.288
						V240.11c2.48-2.725,4.274-6.133,5.001-10.021l1.253-6.693l0.976,0.183c5.792,1.084,11.418-2.768,12.502-8.56l0.11-0.587
						C583.184,208.64,579.332,203.014,573.54,201.93z"/>
				</g>
				<path style="opacity:0.32;fill:#FF887C;" d="M566.242,222.547l-0.894,4.775c-2.062,11.015-12.663,18.273-23.678,16.211
					l-15.573-2.915c-5.951-1.114-10.788-4.732-13.668-9.55c2.539,6.281,8.11,11.183,15.263,12.522l0.621,0.116
					c2.475,5.127,7.716,8.695,13.764,8.695h4.884c7.214,0,13.289-5.07,14.873-11.82c2.705-2.795,4.654-6.382,5.424-10.492
					l1.253-6.693L566.242,222.547z"/>
			</g>
			<g>
				<path style="fill:#FB8E77;" d="M574.396,216.287c-0.107,0-0.216-0.034-0.307-0.105l-3.891-3.02
					c-0.115-0.089-0.185-0.225-0.192-0.371c-0.008-0.145,0.05-0.287,0.156-0.388l4.798-4.529c0.199-0.188,0.519-0.18,0.706,0.021
					c0.189,0.201,0.181,0.517-0.021,0.707l-4.373,4.128l3.43,2.662c0.218,0.169,0.258,0.483,0.088,0.702
					C574.693,216.22,574.545,216.287,574.396,216.287z"/>
				<g>
					<g>
						<g>
							<g>
								<path style="fill:#1B1B25;" d="M549.653,197.68c-0.751-0.022-1.524-0.477-2.297-0.874c-0.77-0.416-1.553-0.815-2.245-1.137
									c-0.694-0.324-1.504-0.668-2.317-0.99c-0.801-0.337-1.651-0.639-2.141-1.196c-0.478-0.529-0.384-1.364,0.734-1.922
									c1.065-0.555,3.234-0.686,5.533,0.379c2.291,1.075,3.556,2.808,3.79,3.968C550.973,197.111,550.373,197.709,549.653,197.68z
									"/>
							</g>
							<g>
								<path style="fill:#1B1B25;" d="M517.836,194.938c0.648,0.357,1.542,0.406,2.406,0.497c0.871,0.075,1.744,0.17,2.501,0.277
									c0.758,0.106,1.625,0.255,2.484,0.421c0.856,0.149,1.735,0.349,2.444,0.182c0.684-0.153,1.044-0.815,0.39-1.783
									c-0.61-0.938-2.378-2.113-4.886-2.47c-2.507-0.345-4.491,0.304-5.3,1.044C517.018,193.862,517.21,194.602,517.836,194.938z"
									/>
							</g>
						</g>
					</g>
					<path style="fill:#1B1B25;" d="M542.298,206.228l0.068,0.013c0.669,0.125,1.319-0.32,1.444-0.989l0.297-1.584
						c0.125-0.669-0.32-1.319-0.989-1.444l-0.068-0.013c-0.669-0.125-1.319,0.32-1.444,0.988l-0.297,1.584
						C541.185,205.454,541.63,206.103,542.298,206.228z"/>
					<path style="fill:#1B1B25;" d="M520.744,202.726l0.068,0.013c0.669,0.125,1.319-0.32,1.444-0.988l0.297-1.584
						c0.125-0.669-0.32-1.319-0.989-1.444l-0.068-0.013c-0.669-0.125-1.319,0.32-1.444,0.988l-0.297,1.584
						C519.63,201.951,520.075,202.601,520.744,202.726z"/>
					<path style="opacity:0.17;fill:#FF887C;" d="M543.188,211.959l4.425,0.498c0.838,0.094,1.6-0.514,1.694-1.351l0.01-0.085
						c0.094-0.838-0.514-1.6-1.351-1.694l-4.425-0.498c-0.838-0.094-1.6,0.514-1.694,1.351l-0.01,0.085
						C541.742,211.103,542.35,211.865,543.188,211.959z"/>
					<path style="opacity:0.17;fill:#FF887C;" d="M514.003,207.362l4.425,0.498c0.838,0.094,1.6-0.514,1.694-1.351l0.01-0.085
						c0.094-0.838-0.514-1.6-1.351-1.694l-4.425-0.498c-0.837-0.094-1.6,0.514-1.694,1.351l-0.01,0.085
						C512.558,206.505,513.166,207.268,514.003,207.362z"/>
					<path style="fill:#FB8E77;" d="M526.899,230.001c-0.153,0-0.306-0.071-0.403-0.205c-0.163-0.223-0.114-0.536,0.108-0.699
						c2.096-1.531,4.443-0.672,5.392-0.005c0.226,0.159,0.28,0.469,0.122,0.695c-0.158,0.226-0.47,0.28-0.695,0.124
						c-0.089-0.063-2.197-1.491-4.229-0.006C527.105,229.969,527.002,230.001,526.899,230.001z"/>
					<path style="fill:#FFFFFF;" d="M530.281,215.786l11.694-1.671l-1.281,4.062c-0.82,2.601-3.232,4.369-5.959,4.369h0
						c-2.121,0-3.901-1.599-4.128-3.708L530.281,215.786z"/>
					<path style="fill:#FB8E77;" d="M533.305,211.641c-0.041,0-0.084-0.005-0.126-0.016l-3.626-0.944
						c-1.538-0.4-2.778-1.468-3.404-2.928c-0.625-1.461-0.542-3.096,0.229-4.484l5.522-9.939c0.136-0.244,0.44-0.328,0.681-0.194
						c0.241,0.134,0.328,0.439,0.194,0.68l-5.522,9.939c-0.621,1.117-0.688,2.431-0.185,3.605c0.503,1.175,1.5,2.033,2.736,2.355
						l3.626,0.944c0.268,0.069,0.428,0.343,0.357,0.61C533.73,211.492,533.527,211.641,533.305,211.641z"/>
				</g>
			</g>
		</g>
	</g>
	<g>
		<g>
			<g>
				<g>
					<path style="fill:#FEC29E;" d="M363.484,283.537l-40.061-74.277l-4.724-11.145c0,0-16.643-38.605-30.131-27.263
						c0,0,0.021,0.107,0.056,0.286c-0.458-0.555-1.004-0.999-1.602-1.275c-0.944-0.436-1.989-0.49-2.909-0.059l0,0
						c-1.84,0.862-2.509,3.354-1.487,5.537l11.517,24.59c-0.62-0.914-2.66-2.286-3.257-2.786c-1.26-1.053-2.605-2.011-4.109-2.684
						c-2.568-1.15-5.654-0.79-7.334,1.699c-0.289,0.428-0.523,0.943-0.412,1.447c0.099,0.452,0.453,0.797,0.793,1.111
						c3.254,3.014,6.846,5.645,10.033,8.73c0,0,0.713,6.897,6.681,11.06c3.453,2.409,5.141,5.143,5.792,6.417l-0.062,0.047
						l14.511,50.481l-21.191,0.283v40.377h46.865c3.98,0,7.708-1.069,10.923-2.927c0.154-0.071,0.31-0.135,0.463-0.21h0
						C364.782,307.641,369.149,294.314,363.484,283.537z"/>
					<path style="opacity:0.17;fill:#FF887C;" d="M329.621,316.113C334.268,315.972,329.621,316.113,329.621,316.113
						s-10.89-29.299-12.761-40.776c-7.216,0-8.313,0.322-15.528,0.322L329.621,316.113z"/>
					<path style="fill:#FB8E77;" d="M305.331,202.443c-0.153,0-0.305-0.07-0.403-0.203c-4.499-6.102-10.324-2.958-10.569-2.82
						c-0.241,0.133-0.545,0.048-0.68-0.193c-0.135-0.24-0.049-0.544,0.191-0.68c0.068-0.038,6.832-3.723,11.863,3.099
						c0.164,0.222,0.117,0.536-0.105,0.699C305.538,202.412,305.434,202.443,305.331,202.443z"/>
					<path style="fill:#FB8E77;" d="M288.778,170.639c1.214,1.212,2.317,2.499,3.368,3.839c1.044,1.344,2.022,2.742,2.898,4.21
						c0.862,1.475,1.63,3.012,2.241,4.623c0.578,1.624,0.988,3.319,1.125,5.066c0.022,0.275-0.184,0.516-0.459,0.537
						c-0.275,0.022-0.516-0.184-0.538-0.459c0-0.002,0-0.005,0-0.007l-0.001-0.021c-0.097-1.628-0.449-3.244-0.973-4.813
						c-0.556-1.56-1.271-3.068-2.084-4.525c-0.827-1.451-1.76-2.844-2.761-4.187c-1.005-1.337-2.08-2.64-3.233-3.839l-0.007-0.007
						c-0.114-0.119-0.111-0.307,0.008-0.421C288.478,170.523,288.663,170.525,288.778,170.639z"/>
					<path style="fill:#FB8E77;" d="M292.159,168.716c1.631,0.843,2.826,2.098,3.944,3.418c1.098,1.333,2.054,2.775,2.875,4.284
						c0.848,1.497,1.549,3.065,2.216,4.645l0.909,2.404l0.808,2.438c0.087,0.262-0.055,0.545-0.317,0.632
						c-0.262,0.087-0.545-0.055-0.632-0.317c-0.001-0.002-0.001-0.004-0.002-0.006l-0.007-0.022l-0.751-2.415l-0.85-2.38
						c-0.625-1.562-1.284-3.114-2.086-4.59c-0.775-1.49-1.68-2.911-2.718-4.22c-1.031-1.285-2.243-2.548-3.631-3.298l-0.047-0.025
						c-0.15-0.081-0.206-0.269-0.125-0.419C291.825,168.695,292.009,168.639,292.159,168.716z"/>
					<path style="fill:#FB8E77;" d="M297.652,169.562c1.123,0.906,2.115,1.909,3.054,2.977c0.936,1.066,1.799,2.199,2.569,3.394
						c0.776,1.19,1.477,2.435,2.058,3.737c0.614,1.289,1.064,2.648,1.475,4.017c0.079,0.264-0.07,0.543-0.335,0.623
						c-0.264,0.079-0.543-0.07-0.623-0.335c-0.001-0.003-0.002-0.006-0.003-0.009l-0.007-0.025
						c-0.364-1.325-0.763-2.647-1.327-3.908c-0.531-1.273-1.181-2.498-1.907-3.675c-0.72-1.182-1.534-2.308-2.423-3.371
						c-0.885-1.061-1.851-2.082-2.89-2.964l-0.013-0.011c-0.123-0.104-0.138-0.288-0.034-0.411
						C297.35,169.48,297.53,169.464,297.652,169.562z"/>
					<path style="opacity:0.18;fill:#FF887C;" d="M300.463,222.117l15.481-1.911l-9.573,19.041
						C306.371,239.248,303.522,225.088,300.463,222.117z"/>
				</g>
				<g>
					<path style="fill:#FFFFFF;" d="M238.253,275.736l0.003,0.018c-0.239-0.006-0.476-0.018-0.716-0.018h-48.917
						c-10.62,0-19.679,6.668-23.229,16.045l-0.005-0.001l-0.075,0.203c-0.012,0.032-0.024,0.065-0.036,0.097l-20.804,56.711
						l19.314,2.363v62.979H268.9l7.86-98.02h18.285v-40.575L238.253,275.736z"/>
					<path style="opacity:0.05;fill:#1B1B25;" d="M295.587,275.539l-55.843,0.233l0.001,0.007
						c20.936,0.872,37.643,18.113,37.643,39.264l-0.086,1.071h18.285V275.539z"/>
					<path style="fill:none;stroke:#FB8E77;stroke-linecap:round;stroke-miterlimit:10;" d="M278.149,346.139"/>
				</g>
			</g>
		</g>
		<g>
			<path style="fill:#1B1B25;" d="M276.083,318.779l-19.756-3.92c-2.34-0.464-4.634,1.07-5.098,3.41l-3.946,19.889l-5.115,25.778
				c-0.464,2.34,1.07,4.634,3.41,5.098l8.087,1.605l11.668,2.315c2.34,0.464,4.634-1.07,5.098-3.41l1.939-9.772l3.15-15.877
				l3.972-20.018C279.957,321.537,278.423,319.243,276.083,318.779z"/>
			<g>
				<path style="fill:#FEC29E;" d="M278.154,345.322c-0.246-0.517-0.638-0.929-1.106-1.215c-0.084-0.124-0.152-0.248-0.243-0.372
					c0,0-0.178,0.022-0.473,0.059c-0.343-0.1-0.705-0.147-1.074-0.119c-3.968,0.31-13.516,1.055-19.36,1.511
					c-3.158,0.246-6.316-0.411-9.115-1.894l-0.467-0.248l0.969-4.886c-1.045,1.281-2.106,2.546-3.232,3.742
					c-0.571,0.032-3.831,0.321-6.88,2.594c-1.131,0.797-2.244,1.855-3.192,3.271c-1.19,1.779-2.475,3.007-3.58,3.844
					c-0.646,0.465-1.22,0.797-1.654,1.015l-0.038-0.054l-44.034,10.901l-0.202,0.05l2.235-9.914l-40.515-4.908l-8.909,38.792
					c-2.703,11.769,4.647,23.501,16.416,26.204l0,0c4.222,0.97,8.429,0.425,12.084-1.249c0.715-0.254,1.423-0.547,2.123-0.882
					l74.533-36.687l10.103-3.787c0,0,0.409-0.157,1.124-0.453l-0.148-0.029C258.128,368.732,283.975,357.56,278.154,345.322z"/>
				<g>
					<path style="opacity:0.17;fill:#FF887C;" d="M139.574,376.756c-0.042,0.212-0.068,0.341-0.079,0.401
						C139.509,377.084,139.537,376.94,139.574,376.756z"/>
					<path style="opacity:0.17;fill:#FF887C;" d="M184.403,363.674c0.912-4.198,0.648-3.836,2.033-9.864l-46.552,21.378
						c0,0,4.613-1.389,10.978-3.078c0.592-0.216,1.194-0.415,1.815-0.582L184.403,363.674z"/>
					<path style="opacity:0.17;fill:#FF887C;" d="M139.687,376.184c-0.04,0.202-0.079,0.4-0.113,0.572
						C139.602,376.61,139.64,376.418,139.687,376.184z"/>
					<path style="opacity:0.17;fill:#FF887C;" d="M139.494,377.157C139.482,377.216,139.482,377.219,139.494,377.157
						L139.494,377.157z"/>
					<path style="opacity:0.17;fill:#FF887C;" d="M139.884,375.188c-0.081,0.41-0.143,0.724-0.197,0.996
						C139.786,375.683,139.884,375.188,139.884,375.188z"/>
				</g>
				<path style="opacity:0.35;fill:#1B1B25;" d="M190.186,354.31c-0.021,0-0.041-0.001-0.062-0.004l-8.838-1.091
					c-0.274-0.033-0.469-0.283-0.435-0.558c0.034-0.273,0.288-0.471,0.557-0.435l8.358,1.031l4.653-29.694
					c0.043-0.273,0.298-0.456,0.572-0.417c0.273,0.043,0.459,0.299,0.417,0.571l-4.729,30.173
					C190.641,354.133,190.428,354.31,190.186,354.31z"/>
			</g>
			<path style="opacity:0.08;fill:#FF887C;" d="M200.511,359.52l19.955-0.5c3.723,0.489,9.649-2.869,8.961-6.561l0,0L200.511,359.52
				z"/>
		</g>
		<g>
			<g>
				<path style="fill:#1B1B25;" d="M263.467,262.961l-6.786-46.188c-0.743-5.06-2.214-9.832-4.276-14.237l3.685-0.592
					c0,0-2.587-37.49-44.634-28.539c-4.142-0.428-8.402-0.356-12.711,0.277h0c-20.427,3.001-34.553,21.993-31.552,42.42
					l3.956,26.925c3.001,20.427,21.993,34.553,42.42,31.552l46.319-6.806C262.206,267.432,263.808,265.278,263.467,262.961z"/>
				<path style="fill:#FCF0E3;" d="M235.574,200.473c-0.246,0-0.46-0.182-0.495-0.432c-0.037-0.274,0.154-0.526,0.428-0.564
					l13.521-1.847c0.108-0.015,0.207-0.074,0.271-0.163c0.036-0.049,0.092-0.152,0.068-0.286
					c-2.186-12.188-13.414-17.811-13.527-17.866c-0.248-0.121-0.351-0.421-0.23-0.669c0.122-0.248,0.423-0.352,0.669-0.23
					c0.118,0.057,11.794,5.89,14.072,18.587c0.066,0.37-0.02,0.743-0.244,1.05c-0.224,0.309-0.568,0.515-0.945,0.566l-13.521,1.847
					C235.619,200.472,235.596,200.473,235.574,200.473z"/>
			</g>
			<g>
				<g>
					<path style="fill:#FEC29E;" d="M248.599,203.147l-37.012,5.947l-8.983-13.286c1.765,14.824-9.166,24.399-9.166,24.399
						s-0.112-0.153-0.306-0.434l-0.307,0.057c-5.792,1.084-9.644,6.71-8.56,12.502l0,0c1.084,5.792,6.71,9.644,12.502,8.56
						l0.707-0.132c1.265,5.554,4.119,10.365,8.01,14.019v23.721c0,8.408,6.88,15.288,15.288,15.288h0
						c8.408,0,15.288-6.88,15.288-15.288v-18.733c6.09-2.803,10.858-7.698,13.58-13.617c0.006-0.009,0.012-0.018,0.017-0.027
						c3.308-5.542,4.691-12.263,3.411-19.106L248.599,203.147z"/>
				</g>
				<path style="opacity:0.32;fill:#FF887C;" d="M231.139,259.046L231.139,259.046c-13.713,2.567-26.952-5.545-31.148-18.469
					c-0.138-0.424-2.553,0.131-2.492,0.391c1.296,5.504,4.175,10.261,8.057,13.88c0.718,7.754,7.283,13.879,15.216,13.879h0
					c5.867,0,10.982-3.355,13.542-8.237c6.934-2.63,12.368-7.885,15.342-14.367C245.761,252.648,239.196,257.537,231.139,259.046z"
					/>
			</g>
			<g>
				<path style="fill:#FB8E77;" d="M191.705,233.864c-0.149,0-0.297-0.066-0.395-0.193c-0.17-0.218-0.13-0.532,0.088-0.702
					l3.325-2.58l-4.244-4.005c-0.201-0.189-0.21-0.506-0.021-0.707c0.19-0.201,0.506-0.209,0.707-0.021l4.669,4.406
					c0.106,0.101,0.163,0.242,0.156,0.388c-0.007,0.146-0.078,0.282-0.193,0.371l-3.786,2.938
					C191.92,233.83,191.812,233.864,191.705,233.864z"/>
				<g>
					<g>
						<g>
							<g>
								<g>
									<path style="fill:#1B1B25;" d="M218.335,215.634c0.446-0.013,0.905-0.283,1.364-0.519c0.457-0.247,0.922-0.484,1.333-0.675
										c0.412-0.192,0.893-0.396,1.376-0.588c0.475-0.2,0.98-0.379,1.271-0.71c0.284-0.314,0.228-0.809-0.436-1.141
										c-0.632-0.329-1.92-0.407-3.285,0.225c-1.36,0.638-2.111,1.667-2.25,2.355
										C217.552,215.296,217.908,215.651,218.335,215.634z"/>
								</g>
								<g>
									<path style="fill:#1B1B25;" d="M244.862,211.02c-0.432,0.111-0.948-0.022-1.454-0.121c-0.507-0.111-1.02-0.21-1.468-0.28
										c-0.449-0.071-0.967-0.134-1.484-0.184c-0.512-0.061-1.047-0.093-1.418-0.331c-0.359-0.224-0.443-0.715,0.104-1.217
										c0.516-0.491,1.732-0.922,3.219-0.692c1.483,0.237,2.49,1.018,2.814,1.641C245.522,210.479,245.278,210.918,244.862,211.02
										z"/>
								</g>
							</g>
						</g>
						<path style="fill:#FB8E77;" d="M229.876,236.323c-4.103,0-6.839-3.219-6.874-3.261c-0.177-0.212-0.147-0.527,0.064-0.704
							c0.212-0.176,0.527-0.148,0.704,0.063c0.159,0.19,3.954,4.622,9.255,2.175c0.251-0.116,0.548-0.006,0.664,0.245
							c0.116,0.251,0.006,0.548-0.245,0.664C232.175,236.092,230.976,236.323,229.876,236.323z"/>
						<path style="fill:#FB8E77;" d="M232.861,229.344c-0.234,0-0.443-0.165-0.49-0.403c-0.053-0.271,0.123-0.534,0.394-0.587
							l3.517-0.692c2.186-0.43,3.613-2.558,3.183-4.743c-0.155-0.79-0.924-1.303-1.713-1.15c-1.85,0.361-3.646-0.844-4.01-2.691
							l-0.849-4.313c-0.053-0.271,0.123-0.534,0.394-0.587c0.271-0.053,0.534,0.124,0.587,0.394l0.849,4.314
							c0.257,1.307,1.531,2.16,2.835,1.903c0.647-0.126,1.3,0.005,1.845,0.371c0.545,0.366,0.915,0.922,1.042,1.567
							c0.537,2.726-1.245,5.381-3.971,5.918l-3.517,0.692C232.926,229.341,232.893,229.344,232.861,229.344z"/>
						<path style="fill:#1B1B25;" d="M222.899,224.071L222.899,224.071c-0.669,0.125-1.319-0.32-1.444-0.989l-0.276-1.475
							c-0.125-0.669,0.32-1.319,0.989-1.444l0,0c0.669-0.125,1.319,0.32,1.444,0.988l0.276,1.475
							C224.013,223.296,223.568,223.946,222.899,224.071z"/>
						<path style="fill:#1B1B25;" d="M243.869,220.664L243.869,220.664c-0.669,0.125-1.319-0.32-1.444-0.988l-0.276-1.475
							c-0.125-0.669,0.32-1.319,0.988-1.444l0,0c0.669-0.125,1.319,0.32,1.444,0.989l0.276,1.475
							C244.983,219.889,244.538,220.538,243.869,220.664z"/>
						<path style="opacity:0.17;fill:#FF887C;" d="M222.026,229.645l-4.223,0.475c-0.837,0.094-1.6-0.514-1.694-1.351l0,0
							c-0.094-0.838,0.514-1.6,1.352-1.694l4.222-0.475c0.837-0.094,1.6,0.514,1.694,1.351v0
							C223.472,228.788,222.863,229.551,222.026,229.645z"/>
						<path style="opacity:0.17;fill:#FF887C;" d="M250.419,225.172l-4.223,0.475c-0.837,0.094-1.6-0.514-1.694-1.351l0,0
							c-0.094-0.838,0.514-1.6,1.352-1.694l4.223-0.475c0.837-0.094,1.6,0.514,1.694,1.351l0,0
							C251.864,224.316,251.256,225.078,250.419,225.172z"/>
						<path style="fill:#FB8E77;" d="M237.913,247.206c-0.102,0-0.206-0.031-0.294-0.096c-1.968-1.439-4.011-0.053-4.097,0.006
							c-0.227,0.158-0.537,0.102-0.696-0.124c-0.158-0.226-0.104-0.537,0.122-0.695c0.926-0.651,3.217-1.489,5.261,0.005
							c0.223,0.163,0.271,0.476,0.109,0.699C238.219,247.135,238.067,247.206,237.913,247.206z"/>
					</g>
				</g>
			</g>
		</g>
	</g>
</g>
<g id="DESIGNED_BY_FREEPIK">
	<g>
		<g>
			<g id="XMLID_197_">
				<g id="XMLID_216_">
					<path id="XMLID_224_" d="M385.064,463.607c-0.431,0.441-0.8,0.927-1.104,1.447l-0.463-0.24c-0.067-0.296-0.348-0.5-0.656-0.464
						c-0.33,0.039-0.565,0.337-0.527,0.667c0.039,0.33,0.337,0.565,0.667,0.527c0.065-0.008,0.126-0.026,0.183-0.052l0.45,0.233
						c-0.25,0.552-0.431,1.134-0.537,1.737l0.743,0.131c0.229-1.301,0.846-2.497,1.785-3.459L385.064,463.607z"/>
					<path id="XMLID_223_" d="M390.529,461.314c-0.17,0-0.339,0.006-0.508,0.017l-0.073-0.624c0.187-0.149,0.295-0.388,0.265-0.642
						c-0.046-0.392-0.401-0.672-0.792-0.625c-0.392,0.046-0.672,0.401-0.626,0.792c0.03,0.253,0.189,0.459,0.403,0.561l0.073,0.622
						c-0.711,0.116-1.397,0.331-2.052,0.643l0.326,0.681c0.93-0.445,1.934-0.671,2.983-0.671c0.495,0,0.989,0.053,1.469,0.157
						l0.16-0.738C391.626,461.373,391.078,461.314,390.529,461.314z"/>
					<path id="XMLID_222_" d="M397.106,463.852c0.329-0.04,0.564-0.34,0.523-0.67c-0.04-0.329-0.34-0.564-0.67-0.523
						c-0.308,0.038-0.533,0.303-0.528,0.606l-0.414,0.362c-0.416-0.428-0.886-0.81-1.402-1.135l-0.402,0.639
						c1.13,0.712,2.013,1.719,2.553,2.914l0.688-0.311c-0.25-0.552-0.565-1.068-0.938-1.539l0.4-0.349
						C396.977,463.856,397.04,463.859,397.106,463.852z"/>
					<path id="XMLID_221_" d="M389.984,471.482c-0.384,0.023-0.772,0.035-1.152,0.035c-0.877,0-1.726-0.06-2.469-0.178
						c-0.389-0.062-0.843-0.154-1.265-0.291c1.042,1.854,3.057,3.113,5.367,3.113c2.844,0,5.241-1.909,5.926-4.486
						c-0.679,0.448-1.499,0.822-2.449,1.118C392.767,471.159,391.398,471.397,389.984,471.482z"/>
					<path id="XMLID_217_" d="M390.529,462.824c-3.339,0-6.055,2.656-6.055,5.92c0,0.424,0.046,0.846,0.137,1.256
						c0.671,0.481,2.695,0.886,5.326,0.728c2.868-0.173,5.276-0.954,6.646-2.15c-0.005-0.194-0.021-0.388-0.045-0.579
						C396.159,465.049,393.576,462.824,390.529,462.824z M388.379,469.313c-1.016,0-1.842-0.826-1.842-1.842
						s0.827-1.842,1.842-1.842c1.016,0,1.842,0.827,1.842,1.842S389.395,469.313,388.379,469.313z M393.097,468.409
						c-0.747,0-1.355-0.608-1.355-1.355s0.608-1.355,1.355-1.355c0.747,0,1.355,0.608,1.355,1.355S393.844,468.409,393.097,468.409z
						"/>
				</g>
				<path id="XMLID_214_" d="M406.469,464.684c-0.294-0.116-0.802-0.308-1.377-0.236c-0.549,0.068-0.84,0.339-0.84,1.003v0.862
					h2.219v1.71h-2.219v5.433h-1.924v-5.433h-1.334v-1.71h1.334v-0.885c0-1.673,0.892-2.772,2.558-2.772
					c0.64,0,1.152,0.121,1.584,0.307L406.469,464.684z"/>
				<path id="XMLID_212_" d="M411.153,468.003c-0.176-0.03-0.356-0.046-0.524-0.046c-0.892,0-1.504,0.546-1.504,1.607v3.892h-1.924
					v-7.143h1.865v0.781c0.45-0.671,1.135-0.973,2.012-0.973c0.413,0,0.844,0.127,1.09,0.335L411.153,468.003z"/>
				<path id="XMLID_209_" d="M418.79,469.874c0,0.221-0.015,0.487-0.037,0.649h-5.064c0.206,1.032,0.929,1.482,1.836,1.482
					c0.619,0,1.29-0.251,1.806-0.685l1.128,1.238c-0.811,0.745-1.843,1.084-3.044,1.084c-2.19,0-3.708-1.489-3.708-3.737
					c0-2.249,1.474-3.782,3.612-3.782C417.374,466.121,418.782,467.647,418.79,469.874z M413.696,469.21h3.162
					c-0.177-0.914-0.73-1.43-1.555-1.43C414.396,467.78,413.865,468.326,413.696,469.21z"/>
				<path id="XMLID_206_" d="M426.412,469.874c0,0.221-0.015,0.487-0.037,0.649h-5.064c0.206,1.032,0.929,1.482,1.835,1.482
					c0.619,0,1.29-0.251,1.806-0.685l1.128,1.238c-0.811,0.745-1.843,1.084-3.045,1.084c-2.19,0-3.708-1.489-3.708-3.737
					c0-2.249,1.475-3.782,3.612-3.782C424.997,466.121,426.405,467.647,426.412,469.874z M421.318,469.21h3.163
					c-0.177-0.914-0.73-1.43-1.556-1.43C422.019,467.78,421.488,468.326,421.318,469.21z"/>
				<path id="XMLID_203_" d="M434.725,469.881c0,2.145-1.489,3.76-3.457,3.76c-0.958,0-1.637-0.376-2.101-0.929v3.693h-1.917
					v-10.092h1.88v0.789c0.464-0.582,1.15-0.98,2.131-0.98C433.236,466.121,434.725,467.736,434.725,469.881z M429.07,469.881
					c0,1.128,0.744,1.968,1.835,1.968c1.135,0,1.843-0.877,1.843-1.968c0-1.091-0.708-1.968-1.843-1.968
					C429.815,467.913,429.07,468.753,429.07,469.881z"/>
				<path id="XMLID_200_" d="M437.816,463.976c0,0.693-0.538,1.224-1.231,1.224c-0.693,0-1.224-0.531-1.224-1.224
					c0-0.693,0.531-1.238,1.224-1.238C437.277,462.738,437.816,463.283,437.816,463.976z M437.558,473.456h-1.924v-7.143h1.924
					V473.456z"/>
				<path id="XMLID_198_" d="M440.768,468.856l2.691-2.543h2.359l-3.465,3.362l3.487,3.782h-2.367l-2.705-2.89v2.89h-1.924v-10.616
					h1.924V468.856z"/>
			</g>
			<g>
				<path d="M309.674,473.392v-1.051c-0.525,0.715-1.386,1.226-2.378,1.226c-1.838,0-3.137-1.4-3.137-3.691
					c0-2.247,1.284-3.706,3.137-3.706c0.948,0,1.809,0.467,2.378,1.24v-3.75h1.095v9.731H309.674z M309.674,471.48v-3.195
					c-0.394-0.613-1.24-1.138-2.116-1.138c-1.415,0-2.261,1.167-2.261,2.728c0,1.561,0.846,2.714,2.261,2.714
					C308.434,472.589,309.28,472.093,309.674,471.48z"/>
				<path d="M312.184,469.861c0-2.043,1.459-3.691,3.472-3.691c2.13,0,3.385,1.663,3.385,3.779v0.277h-5.704
					c0.088,1.328,1.021,2.436,2.539,2.436c0.802,0,1.619-0.321,2.174-0.89l0.525,0.715c-0.7,0.7-1.648,1.079-2.801,1.079
					C313.686,473.567,312.184,472.064,312.184,469.861z M315.641,467.075c-1.503,0-2.247,1.269-2.305,2.349h4.625
					C317.946,468.373,317.246,467.075,315.641,467.075z"/>
				<path d="M319.828,472.458l0.569-0.788c0.467,0.54,1.357,1.007,2.32,1.007c1.08,0,1.663-0.511,1.663-1.211
					c0-1.707-4.362-0.656-4.362-3.268c0-1.094,0.948-2.028,2.626-2.028c1.196,0,2.043,0.452,2.612,1.021l-0.511,0.759
					c-0.423-0.511-1.196-0.89-2.101-0.89c-0.963,0-1.561,0.482-1.561,1.109c0,1.546,4.362,0.525,4.362,3.268
					c0,1.182-0.948,2.13-2.772,2.13C321.52,473.567,320.543,473.216,319.828,472.458z"/>
				<path d="M326.671,464.609c0-0.408,0.336-0.744,0.729-0.744c0.408,0,0.744,0.336,0.744,0.744c0,0.409-0.336,0.729-0.744,0.729
					C327.006,465.338,326.671,465.017,326.671,464.609z M326.86,473.392v-7.047h1.094v7.047H326.86z"/>
				<path d="M329.763,475.201l0.554-0.817c0.583,0.7,1.284,0.963,2.291,0.963c1.167,0,2.261-0.569,2.261-2.116v-1.007
					c-0.51,0.715-1.371,1.255-2.364,1.255c-1.838,0-3.137-1.371-3.137-3.647c0-2.261,1.284-3.662,3.137-3.662
					c0.948,0,1.795,0.467,2.364,1.24v-1.065h1.094v6.842c0,2.334-1.634,3.064-3.355,3.064
					C331.412,476.251,330.595,476.018,329.763,475.201z M334.87,471.364v-3.078c-0.379-0.613-1.226-1.138-2.101-1.138
					c-1.415,0-2.261,1.124-2.261,2.684c0,1.547,0.846,2.685,2.261,2.685C333.644,472.516,334.49,471.977,334.87,471.364z"/>
				<path d="M342.543,473.392v-4.61c0-1.24-0.627-1.634-1.576-1.634c-0.861,0-1.678,0.525-2.086,1.094v5.15h-1.095v-7.047h1.095
					v1.021c0.496-0.583,1.459-1.196,2.509-1.196c1.474,0,2.247,0.744,2.247,2.276v4.946H342.543z"/>
				<path d="M345.052,469.861c0-2.043,1.459-3.691,3.472-3.691c2.13,0,3.385,1.663,3.385,3.779v0.277h-5.704
					c0.087,1.328,1.021,2.436,2.538,2.436c0.802,0,1.619-0.321,2.174-0.89l0.525,0.715c-0.7,0.7-1.649,1.079-2.801,1.079
					C346.555,473.567,345.052,472.064,345.052,469.861z M348.51,467.075c-1.503,0-2.247,1.269-2.305,2.349h4.625
					C350.815,468.373,350.115,467.075,348.51,467.075z"/>
				<path d="M358.417,473.392v-1.051c-0.525,0.715-1.386,1.226-2.378,1.226c-1.838,0-3.137-1.4-3.137-3.691
					c0-2.247,1.284-3.706,3.137-3.706c0.948,0,1.81,0.467,2.378,1.24v-3.75h1.094v9.731H358.417z M358.417,471.48v-3.195
					c-0.394-0.613-1.24-1.138-2.116-1.138c-1.415,0-2.261,1.167-2.261,2.728c0,1.561,0.846,2.714,2.261,2.714
					C357.176,472.589,358.022,472.093,358.417,471.48z"/>
				<path d="M364.733,473.392v-9.731h1.094v3.75c0.569-0.773,1.415-1.24,2.378-1.24c1.838,0,3.137,1.459,3.137,3.706
					c0,2.29-1.298,3.691-3.137,3.691c-0.992,0-1.853-0.51-2.378-1.226v1.051H364.733z M367.928,472.589
					c1.43,0,2.276-1.152,2.276-2.714c0-1.561-0.846-2.728-2.276-2.728c-0.861,0-1.721,0.525-2.101,1.138v3.195
					C366.207,472.093,367.068,472.589,367.928,472.589z"/>
				<path d="M372.538,475.157c0.16,0.073,0.423,0.117,0.598,0.117c0.481,0,0.802-0.161,1.05-0.744l0.467-1.065l-2.947-7.12h1.182
					l2.349,5.777l2.334-5.777h1.196l-3.531,8.477c-0.423,1.021-1.138,1.415-2.072,1.43c-0.233,0-0.598-0.044-0.802-0.102
					L372.538,475.157z"/>
			</g>
		</g>
	</g>
</g>
</svg>
